<svg width="80" height="33" xmlns="http://www.w3.org/2000/svg"><path d="M34.242 24.972c0 1.223-.465 2.851-4.482 2.851-4.223 0-4.712-1.701-4.712-2.981 0-2.904 5.938-2.938 5.997-2.938 1.185 0 2.276.056 3.197.163v2.905zM29.3 8.704c-2.526 0-5.688.534-7.947 1.355l-.514.187v5.034l1.056-.349c2.157-.713 4.88-1.177 6.81-1.177 3.943 0 5.137 1.292 5.454 3.562a33.108 33.108 0 00-3.297-.158c-7.253 0-11.583 2.889-11.583 7.728 0 1.884.756 8.03 10.48 8.03 4.027 0 6.948-1.088 8.685-3.236 1.402-1.734 1.61-3.665 1.61-4.66v-6.347c0-6.336-3.918-9.969-10.754-9.969zm42.346 8.902c-2.157-.624-3.468-1.057-3.468-1.827 0-.667 0-2.056 3.748-2.056 1.654 0 3.392.41 5.315 1.254l1.128.495V10.33l-.441-.211c-2.09-1.002-4.34-1.532-6.504-1.532-3.007 0-5.342.778-6.944 2.315-1.334 1.28-2.068 3.06-2.068 5.01 0 4.758 4.059 5.952 7.321 6.912 2.687.79 4.335 1.354 4.335 2.913 0 1.214-1.42 1.969-3.702 1.969-2.15 0-4.124-.502-6.033-1.535l-1.186-.643v5.417l.416.218c2.078 1.086 4.429 1.635 6.988 1.635 6.887 0 9.331-3.899 9.331-7.237 0-5.58-4.76-6.954-8.236-7.956M43.474 32.077h2.22c2.042 0 3.698-1.634 3.698-3.652V.285h-5.918v31.792M11.56 9.936H9.98V.043H4.1v9.893H.009v5.105h4.093V25.58c0 2.312.71 4.131 2.11 5.406 1.396 1.27 2.857 1.913 5.289 1.913 1.672 0 4.393-.504 5.627-1.045l.264-.116-1.247-5.313-.679.381c-.365.205-.827.377-1.375.513a6.63 6.63 0 01-1.58.204c-.961 0-1.624-.214-1.97-.635-.371-.453-.56-1.235-.56-2.327v-9.519h1.58v.004h2.22c2.043 0 3.699-1.634 3.699-3.652V9.932h-5.92v.004m41.835-1.28l.006 23.421h2.22c2.043 0 3.699-1.634 3.699-3.652l-.006-19.77h-5.919m-.14-2.691h6.199v-5.8h-6.199z" fill="#017D87" fill-rule="evenodd"/></svg>